<svg width="629" height="433" viewBox="0 0 629 433" fill="none" xmlns="http://www.w3.org/2000/svg">
<path d="M390 155.016C432.164 154.191 408.858 185.452 420.838 206.057C422.788 209.411 428.046 210.49 432 211.143L431.998 221.326C400.617 226.602 432.762 266.435 403.402 276.664C398.723 277.685 395.016 277.779 390.27 278L390.063 267.6C395.56 267.389 401.618 266.943 403.111 261.618C407.703 245.249 397.522 227.399 417.993 216.553C388.456 198.188 420.911 167.011 390.321 165.17L390 155.016Z" fill="#6E07F3"/>
<path d="M230.743 155.323C233.85 155.119 237.69 155.094 240.865 155L240.912 165.403C229.206 165.684 225.825 167.411 225.636 178.375C225.353 194.754 229.468 206.286 211.524 216.265C242.732 233.176 208.149 265.286 240.784 267.294C240.885 270.248 241.486 275.055 240.099 277.537L237.897 278C188.859 275.942 233.024 228.716 197.087 220.777L197 210.929C198.394 210.739 199.781 210.518 201.161 210.265C226.83 205.424 195.647 160.478 230.743 155.323Z" fill="#6E07F3"/>
<path d="M256 179.343C270.393 179.288 293.554 176.849 304.641 185.812C314.164 193.511 314.489 208.134 305.357 216.255C297.256 223.46 287.668 223.531 276.986 223.71L265.819 223.754L265.923 254.963L256.033 255L256 179.343ZM265.892 216.096C276.835 215.95 287.943 217.24 296.845 212.023C300.621 208 302.387 205.184 301.873 199.673C300.495 184.85 277.627 187.383 265.791 187.455L265.892 216.096Z" fill="black"/>
<path d="M346.764 177C359.908 177.58 368.084 180.728 372.982 192.762L365.031 196.377C360.396 188.587 358.262 185.644 348.053 185.068C340.193 184.624 331.297 189.504 332.091 197.657C333.466 211.787 358.301 210.917 367.274 219.79C371.356 223.242 373.773 227.323 373.977 232.683C374.61 249.297 362.084 255.34 346.507 256C331.743 254.546 325.061 250.841 320 237.381L328.964 235.072C333.29 244.452 340.228 250.132 350.918 248.09C373.028 243.868 367.152 224.977 348.731 220.527C339.853 217.576 323.626 211.904 322.947 201.285C321.928 185.354 331.841 178.492 346.764 177Z" fill="black"/>
</svg>
